<?xml version="1.0" standalone="no"?>
<!DOCTYPE svg PUBLIC "-//W3C//DTD SVG 20010904//EN"
 "http://www.w3.org/TR/2001/REC-SVG-20010904/DTD/svg10.dtd">
<svg version="1.0" xmlns="http://www.w3.org/2000/svg"
 width="320.000000pt" height="320.000000pt" viewBox="0 0 320.000000 320.000000"
 preserveAspectRatio="xMidYMid meet">
<metadata>
Created by potrace 1.11, written by Peter Selinger 2001-2013
</metadata>
<g transform="translate(0.000000,320.000000) scale(0.100000,-0.100000)"
fill="#000000" stroke="none">
<path d="M0 1600 l0 -1600 1600 0 1600 0 0 1600 0 1600 -1600 0 -1600 0 0
-1600z m1135 777 c39 -14 87 -32 108 -41 l38 -17 10 31 c11 29 13 30 74 30
l64 0 10 -52 c13 -64 91 -477 94 -497 1 -10 -21 -19 -78 -32 -44 -10 -80 -17
-80 -16 -28 106 -110 252 -180 322 -23 23 -68 55 -101 71 -50 25 -71 29 -139
29 -67 0 -89 -4 -137 -28 -165 -81 -296 -338 -314 -616 -15 -224 51 -373 195
-440 75 -35 216 -37 303 -4 115 43 218 121 313 236 l40 48 70 -47 c39 -26 72
-48 73 -50 7 -5 -56 -91 -108 -148 -102 -111 -240 -196 -387 -238 -106 -31
-343 -33 -443 -4 -237 69 -416 252 -460 470 -34 167 -1 374 88 551 123 248
315 405 557 459 108 24 299 16 390 -17z m1500 -19 c3 -13 57 -248 120 -523
146 -635 152 -659 182 -690 15 -14 47 -29 79 -36 42 -9 53 -16 50 -28 -3 -9
-10 -49 -17 -89 l-12 -72 -380 0 -379 0 6 38 c4 20 11 60 17 88 l10 50 75 11
c124 18 131 36 90 223 l-22 105 -236 3 -235 2 -63 -117 c-72 -137 -80 -180
-38 -201 15 -7 50 -16 78 -19 57 -7 57 -6 37 -113 l-12 -65 -314 -3 -313 -2 5
22 c3 13 11 53 17 91 8 44 17 67 26 67 33 0 130 45 165 77 46 42 51 50 394
633 147 250 283 481 302 513 l34 57 165 0 c161 0 164 0 169 -22z"/>
<path d="M2243 1905 c-49 -88 -107 -190 -127 -227 l-38 -68 172 0 172 0 -5 23
c-3 12 -22 110 -42 217 -20 107 -37 199 -39 205 -1 5 -43 -63 -93 -150z"/>
</g>
</svg>
